<svg xmlns="http://www.w3.org/2000/svg" width="980" height="680" viewBox="0 0 980 680" role="img" aria-labelledby="title desc">
  <title id="title">도산법 전담팀 이미지</title>
  <desc id="desc">전담팀의 문서 검토와 사건 관리를 상징하는 추상 이미지</desc>
  <defs>
    <linearGradient id="bg" x1="0" y1="0" x2="1" y2="1">
      <stop offset="0" stop-color="#eef3f8"/>
      <stop offset="1" stop-color="#cddbe8"/>
    </linearGradient>
    <filter id="shadow" x="-20%" y="-20%" width="140%" height="140%">
      <feDropShadow dx="0" dy="22" stdDeviation="24" flood-color="#071e38" flood-opacity="0.16"/>
    </filter>
  </defs>
  <rect width="980" height="680" fill="url(#bg)"/>
  <path d="M0 520C160 460 252 604 420 520C615 422 780 446 980 340V680H0Z" fill="#ffffff" opacity="0.45"/>
  <circle cx="805" cy="118" r="112" fill="#0f4c81" opacity="0.12"/>
  <g filter="url(#shadow)">
    <rect x="128" y="118" width="310" height="420" rx="18" fill="#ffffff" transform="rotate(-4 283 328)"/>
    <rect x="338" y="92" width="320" height="452" rx="18" fill="#ffffff" transform="rotate(3 498 318)"/>
    <rect x="548" y="154" width="282" height="360" rx="18" fill="#ffffff" transform="rotate(-2 689 334)"/>
  </g>
  <g opacity="0.78">
    <rect x="183" y="176" width="150" height="16" rx="3" fill="#071e38" transform="rotate(-4 258 184)"/>
    <rect x="174" y="236" width="210" height="9" rx="2" fill="#0f4c81" opacity="0.26" transform="rotate(-4 279 240)"/>
    <rect x="170" y="280" width="235" height="9" rx="2" fill="#0f4c81" opacity="0.22" transform="rotate(-4 287 284)"/>
    <rect x="386" y="154" width="185" height="16" rx="3" fill="#071e38" transform="rotate(3 478 162)"/>
    <rect x="394" y="222" width="220" height="9" rx="2" fill="#0f4c81" opacity="0.22" transform="rotate(3 504 226)"/>
    <rect x="398" y="270" width="176" height="9" rx="2" fill="#0f4c81" opacity="0.20" transform="rotate(3 486 274)"/>
    <rect x="590" y="210" width="138" height="16" rx="3" fill="#071e38" transform="rotate(-2 659 218)"/>
    <rect x="588" y="272" width="182" height="9" rx="2" fill="#0f4c81" opacity="0.24" transform="rotate(-2 679 276)"/>
    <rect x="586" y="316" width="150" height="9" rx="2" fill="#0f4c81" opacity="0.20" transform="rotate(-2 661 320)"/>
  </g>
  <g transform="translate(396 392)" filter="url(#shadow)">
    <rect width="250" height="122" rx="16" fill="#071e38"/>
    <text x="28" y="48" font-family="Arial, sans-serif" font-size="18" font-weight="700" fill="#d2b77d">CONFIDENTIAL</text>
    <text x="28" y="84" font-family="Arial, sans-serif" font-size="32" font-weight="800" fill="#ffffff">비밀보장</text>
  </g>
</svg>
